<?xml version="1.0" encoding="UTF-8" standalone="no"?>
<!-- Created with Inkscape (http://www.inkscape.org/) -->

<svg
   width="210mm"
   height="297mm"
   viewBox="0 0 210 297"
   version="1.1"
   id="svg1"
   xml:space="preserve"
   inkscape:version="1.4 (86a8ad7, 2024-10-11)"
   sodipodi:docname="gmu-logo.svg"
   xmlns:inkscape="http://www.inkscape.org/namespaces/inkscape"
   xmlns:sodipodi="http://sodipodi.sourceforge.net/DTD/sodipodi-0.dtd"
   xmlns="http://www.w3.org/2000/svg"
   xmlns:svg="http://www.w3.org/2000/svg"><sodipodi:namedview
     id="namedview1"
     pagecolor="#ffffff"
     bordercolor="#000000"
     borderopacity="0.25"
     inkscape:showpageshadow="2"
     inkscape:pageopacity="0.0"
     inkscape:pagecheckerboard="0"
     inkscape:deskcolor="#d1d1d1"
     inkscape:document-units="mm"
     inkscape:zoom="0.78840488"
     inkscape:cx="234.65101"
     inkscape:cy="507.98772"
     inkscape:window-width="1920"
     inkscape:window-height="1166"
     inkscape:window-x="-11"
     inkscape:window-y="-11"
     inkscape:window-maximized="1"
     inkscape:current-layer="layer1" /><defs
     id="defs1" /><g
     inkscape:label="Layer 1"
     inkscape:groupmode="layer"
     id="layer1"><path
       style="fill:#000000"
       d="m 101.25784,205.16012 c -3.006563,-3.67771 -19.227203,-11.84059 -30.743104,-15.47116 -6.511306,-2.0528 -13.787709,-2.70431 -29.769909,-2.66552 l -21.152266,0.0514 1.754555,-4.3424 c 2.157452,-5.33953 7.859661,-6.81038 25.776875,-6.64898 18.645593,0.16796 34.75113,6.4692 47.308876,18.50946 4.84696,4.64722 6.843213,4.17599 2.41697,-0.57054 -5.44132,-5.8351 -25.021971,-17.2566 -34.337198,-20.02912 -5.843395,-1.73918 -14.069925,-2.72633 -22.407591,-2.68879 l -13.174402,0.0593 3.867458,-6.24951 3.867457,-6.2495 12.384674,0.83472 c 18.45788,1.24405 30.47581,7.64192 45.931922,24.45234 4.27501,4.64958 6.46324,6.20609 6.46324,4.59736 0,-3.43257 -10.286251,-14.27348 -18.320385,-19.30825 -9.270029,-5.80928 -22.431977,-11.39132 -31.763592,-13.47109 -4.277538,-0.95335 -7.777342,-2.27538 -7.777342,-2.93784 0,-0.66246 2.306638,-3.15809 5.125863,-5.54584 4.924519,-4.17084 5.386316,-4.26677 11.756582,-2.44224 11.115839,3.18373 25.609622,13.52101 34.368444,24.51231 7.04229,8.83727 8.016423,9.58779 9.095353,7.00764 0.66459,-1.5893 1.1036,-12.68523 0.97557,-24.65761 -0.12803,-11.97239 -0.43544,-17.51388 -0.68314,-12.31443 -0.45953,9.64595 -1.35658,12.15309 -4.563963,12.75556 -1.57163,0.29522 -1.56326,-0.14467 0.0632,-3.32165 1.15169,-2.24958 1.72686,-6.26764 1.49129,-10.41796 -0.37502,-6.60721 -0.53162,-6.82819 -7.10927,-10.03199 -4.983823,-2.42748 -6.944862,-4.28168 -7.571607,-7.1591 -0.502631,-2.3076 -0.8956,-2.80214 -0.968524,-1.21885 -0.197465,4.28721 -1.885669,4.57034 -9.530885,1.59842 -5.482641,-2.13127 -7.300814,-3.5898 -7.583814,-6.08373 -0.243917,-2.14951 -2.047637,-4.12266 -5.23214,-5.72361 -3.259377,-1.6386 -4.859897,-3.41898 -4.859897,-5.40605 0,-1.62955 -0.602262,-3.73361 -1.33836,-4.675692 -0.963752,-1.23344 -0.963752,-2.00918 0,-2.77149 0.736098,-0.58224 1.33836,-2.7025 1.33836,-4.71169 0,-2.00919 0.888699,-4.59702 1.974887,-5.75073 1.086188,-1.15372 2.491753,-3.83755 3.123478,-5.96407 1.528643,-5.14574 4.184439,-2.10593 2.782114,3.1844 -0.539961,2.03703 -0.79892,4.4127 -0.575463,5.27928 0.223457,0.86657 0.830501,3.70264 1.348986,6.30237 0.651606,3.26721 0.981612,0.22644 1.068716,-9.84745 0.06931,-8.01583 0.480437,-14.57423 0.913617,-14.57423 0.43318,0 1.549186,1.24078 2.480015,2.75728 0.930828,1.51651 1.618786,2.04827 1.528796,1.1817 -0.473657,-4.56116 0.280116,-10.24135 1.359048,-10.24135 2.28062,0 1.356147,12.69203 -1.231092,16.90158 -2.066245,3.36187 -2.462184,6.39184 -2.462184,18.842122 v 14.83605 l 4.269281,2.28299 c 4.871491,2.60502 6.810546,2.87132 6.810546,0.93532 0,-0.74121 -1.800472,-2.00685 -4.001049,-2.81252 l -4.001048,-1.46485 -0.353367,-14.460642 c -0.312749,-12.79842 -0.06509,-14.82959 2.154512,-17.67031 1.944359,-2.48846 2.448285,-4.96258 2.242663,-11.0108 -0.278362,-8.18784 0.903009,-11.73209 2.682359,-8.04739 0.787086,1.62991 1.158141,1.22122 1.471927,-1.62122 0.53595,-4.85493 2.762794,-4.32153 3.264081,0.78185 0.224679,2.28735 -0.604795,5.1559 -2.011471,6.95621 -2.2497,2.87924 -4.443666,16.64177 -2.394583,15.02099 0.520287,-0.41154 0.945976,-2.08259 0.945976,-3.71346 0,-4.37967 1.992591,-5.19321 5.50514,-2.24766 2.458437,2.06159 3.112503,3.91593 3.112503,8.82423 0,3.74155 -0.489849,5.82668 -1.231092,5.24037 -0.677101,-0.53557 -1.231092,-2.58629 -1.231092,-4.55716 0,-5.32256 -1.047854,-5.75106 -4.384803,-1.79308 -4.346395,5.15531 -4.303316,16.713302 0.07598,20.385692 3.048904,2.55674 3.077729,2.53631 3.077729,-2.18218 0,-2.61971 -0.553991,-4.763102 -1.231092,-4.763102 -0.6771,0 -1.231091,-0.70902 -1.231091,-1.57559 0,-0.86658 2.215965,-1.5756 4.924367,-1.5756 h 4.924363 v 6.302372 c 0,3.46631 -0.55399,6.30237 -1.23109,6.30237 -0.677098,0 -1.231089,-2.24522 -1.231089,-4.98937 0,-5.038212 -1.428864,-5.098022 -2.047297,-0.0857 -0.657113,5.32582 0.728893,7.81064 3.921066,7.02966 2.89132,-0.70738 3.0506,-1.30706 3.0506,-11.485642 0,-9.35552 -0.31726,-10.86817 -2.46219,-11.73944 -2.09768,-0.85209 -2.462179,-2.38393 -2.462179,-10.34753 0,-5.18119 0.548705,-9.34738 1.231089,-9.34738 0.6771,0 1.23109,3.52014 1.23109,7.82253 0,6.20998 0.50756,8.17017 2.46219,9.50899 1.89778,1.29988 2.46218,3.29901 2.46218,8.72119 0,5.2027 0.48091,7.034732 1.84664,7.034732 1.01565,0 1.846643,0.63316 1.846643,1.40702 0,0.77386 -0.830993,1.81514 -1.846643,2.31394 -2.11206,1.03727 -2.68556,15.18615 -0.61555,15.18615 0.6771,0 1.2311,-1.79479 1.2311,-3.98843 0,-2.19364 0.830983,-4.39654 1.846633,-4.89535 1.20738,-0.59296 1.84664,-3.04741 1.84664,-7.09016 0,-4.042762 -0.63926,-6.497212 -1.84664,-7.090172 -1.29078,-0.63393 -1.846633,-3.21083 -1.846633,-8.56087 0,-6.04141 -0.51874,-8.00927 -2.46219,-9.34042 -2.1458,-1.46976 -2.46218,-3.29901 -2.46218,-14.23577 0,-7.31581 0.51341,-12.549302 1.23109,-12.549302 0.7113,0 1.23109,4.989372 1.23109,11.816942 0,6.82757 0.5198,11.81694 1.23109,11.81694 0.71814,0 1.2311,-5.25197 1.2311,-12.60474 0,-14.029446 2.078883,-17.262987 2.785663,-4.33287 l 0.45215,8.27186 0.22773,-8.07894 c 0.13969,-4.955449 0.94168,-8.837272 2.07437,-10.040377 1.60589,-1.705719 1.87185,-0.652443 2.04005,8.078937 0.19102,9.91657 0.20241,9.94761 0.92332,2.51765 1.17818,-12.142807 3.15612,-9.536048 3.54853,4.67667 0.32125,11.63533 0.10855,13.07965 -2.15441,14.62966 -2.25445,1.54418 -2.51085,3.2364 -2.51085,16.57112 0,13.248842 -0.29072,15.197952 -2.69432,18.063872 -2.65768,3.16888 -1.82173,4.12236 1.97808,2.2562 1.59348,-0.78259 1.94733,-3.77868 1.94733,-16.488292 0,-13.91937 0.25563,-15.70701 2.46218,-17.21838 1.3542,-0.92755 2.46219,-3.0377 2.46219,-4.68922 0,-4.33286 2.04739,-5.31485 5.19613,-2.49222 1.50605,1.35007 3.16899,2.45467 3.69544,2.45467 2.0069,0 0.84916,-9.09026 -1.50502,-11.81695 -2.52391,-2.92328 -3.45046,-11.81694 -1.23109,-11.81694 0.6771,0 1.24871,1.59529 1.27024,3.54508 0.038,3.4447 0.09,3.45911 1.83392,0.50892 0.98712,-1.66989 2.0439,-2.71731 2.3484,-2.3276 0.3045,0.38971 0.67882,5.14838 0.83183,10.57482 0.19167,6.79778 0.67433,9.35926 1.55194,8.23607 2.22105,-2.84258 3.24349,-1.78139 3.24349,3.36643 0,2.74814 0.92803,6.30903 2.06228,7.91309 3.11071,4.39916 3.2767,19.819652 0.23947,22.247212 -2.83351,2.26474 -3.12623,6.55055 -0.35442,5.18926 1.07103,-0.526 2.45601,-0.95636 3.07773,-0.95636 0.62172,0 1.1304,-5.56225 1.1304,-12.360542 0,-10.35956 -0.39859,-12.82221 -2.46218,-15.21233 -1.48196,-1.71645 -2.46219,-4.85277 -2.46219,-7.87796 0,-3.06392 -0.984,-6.16588 -2.52045,-7.94545 -1.48849,-1.72402 -2.37058,-4.42448 -2.15441,-6.59555 0.47186,-4.73907 2.59744,-4.813 3.62883,-0.12622 0.44033,2.00094 0.85583,2.7518 0.92332,1.66858 0.0675,-1.08322 0.9537,-1.96949 1.96935,-1.96949 1.45297,0 1.84664,2.19382 1.84664,10.2908 0,7.69391 0.466,10.51966 1.84664,11.19772 1.46109,0.71757 1.84664,4.01389 1.84664,15.78843 v 14.881522 l -3.69328,1.64777 c -2.0313,0.90627 -3.69328,2.36327 -3.69328,3.23779 0,0.87452 0.88246,1.15664 1.96101,0.62694 1.07856,-0.52969 3.29452,-1.39143 4.92437,-1.91497 2.89838,-0.93101 2.96336,-1.31984 2.96336,-17.733582 0,-15.07533 -0.25036,-16.98181 -2.46218,-18.74966 -1.8685,-1.49343 -2.46219,-3.67432 -2.46219,-9.04476 0,-3.89225 0.55399,-7.07681 1.23109,-7.07681 0.6771,0 1.2311,2.43971 1.2311,5.42158 0,2.98188 0.55399,5.85979 1.23109,6.39536 0.6771,0.53557 1.23109,-0.48611 1.23109,-2.2704 0,-1.7843 0.55399,-3.24417 1.23109,-3.24417 0.72954,0 1.23109,5.77717 1.23109,14.18033 0,8.40316 0.50156,14.18033 1.23109,14.18033 0.67711,0 1.2311,-2.5234 1.2311,-5.60756 0,-3.33716 0.49844,-5.2133 1.23109,-4.63379 0.6771,0.53557 1.23109,3.72021 1.23109,7.07698 0,4.719432 -0.55825,6.329972 -2.46218,7.103352 -3.16404,1.28524 -3.19322,3.93898 -0.0433,3.93898 1.33038,0 2.92486,-1.24078 3.5433,-2.75729 1.75505,-4.30369 0.91294,-14.096172 -1.50644,-17.517662 -1.24357,-1.75865 -1.97743,-4.6886 -1.6967,-6.77409 l 0.49469,-3.67501 1.32262,4.00373 c 0.72744,2.20206 2.21132,4.94768 3.29751,6.1014 1.08619,1.15371 1.97489,3.64158 1.97489,5.5286 0,1.88701 0.66479,4.28176 1.47731,5.32165 0.95815,1.22627 1.01223,1.89071 0.15388,1.89071 -0.72788,0 -1.64564,2.061912 -2.03946,4.582032 -0.54479,3.48623 -1.74099,5.01496 -5.00183,6.39228 -2.87677,1.2151 -4.41211,2.92709 -4.66999,5.20731 -0.29818,2.63648 -2.00725,4.028 -7.63351,6.21511 -6.72072,2.61258 -7.35759,2.62855 -8.73423,0.21905 -1.34958,-2.36214 -1.54435,-2.30811 -2.13709,0.59281 -0.43928,2.14986 -2.71209,4.06748 -6.96219,5.87417 l -6.31002,2.68234 v 8.80896 c 0,5.98577 0.65299,9.73242 2.03745,11.69032 2.49076,3.52244 0.73672,3.7735 -2.99461,0.42862 -2.43288,-2.1809 -2.73611,-3.82549 -2.73611,-14.83926 0,-13.74886 0.66923,-17.37104 3.20944,-17.37104 1.02503,0 1.71493,-1.64394 1.71493,-4.08649 0,-2.76141 0.79838,-4.35369 2.46218,-4.91054 2.01618,-0.67478 2.46218,-2.14913 2.46218,-8.13925 0,-5.608812 0.57434,-7.774242 2.46219,-9.283142 1.39193,-1.11253 2.46218,-3.67432 2.46218,-5.89358 0,-2.15909 0.55399,-3.92563 1.23109,-3.92563 0.6771,0 1.2311,2.45662 1.2311,5.45914 0,3.84659 -0.7273,5.9573 -2.46219,7.1456 -1.88193,1.28903 -2.46218,3.29902 -2.46218,8.529022 0,5.33941 -0.60849,7.36611 -2.76996,9.22589 -3.55434,3.05824 -1.90112,5.37939 2.14921,3.01751 2.69405,-1.57098 3.08293,-2.79573 3.08293,-9.70949 0,-6.48569 0.38832,-7.911222 2.15441,-7.908872 1.86053,0.002 2.09719,-1.29536 1.7349,-9.51434 -0.37321,-8.46666 -0.67384,-9.41391 -2.72346,-8.58134 -1.26716,0.51472 -3.37747,0.20055 -4.68956,-0.69816 -3.06218,-2.09743 -3.86284,0.35453 -3.86284,11.82967 0,10.973082 -2.40144,11.213262 -2.64991,0.26503 l -0.18772,-8.27186 -0.81236,10.24135 c -0.44679,5.632742 -0.69544,12.934652 -0.55255,16.226452 0.24291,5.59588 -0.0523,6.14494 -4.53983,8.44294 -4.34816,2.22664 -6.962083,7.39597 -3.26078,6.44856 1.16417,-0.29799 1.62426,5.36078 1.88954,23.23999 0.32243,21.73081 0.13744,24.12142 -2.29738,29.68855 -2.0902,4.77915 -2.53067,7.86631 -2.09084,14.65422 0.31575,4.87302 1.39667,9.67392 2.49439,11.07882 1.76219,2.25531 2.12639,2.01101 4.03163,-2.7043 2.07742,-5.14147 2.0804,-15.36138 0.007,-22.78104 -0.60076,-2.14942 -0.51454,-2.49886 0.2712,-1.0992 0.87563,1.55978 1.94503,0.72122 4.45832,-3.49595 4.07931,-6.84487 16.7327,-18.5607 24.86581,-23.02336 3.34037,-1.83286 9.60422,-4.38073 13.91967,-5.66191 7.83909,-2.3273 7.85064,-2.32556 12.61869,1.90334 2.62483,2.32803 4.77242,5.04335 4.77242,6.03405 0,1.03366 -4.13515,2.634 -9.70361,3.75539 -11.56708,2.32938 -25.48584,8.16373 -33.09993,13.87454 -7.17164,5.37897 -15.05778,14.54206 -15.05778,17.496 0,1.40819 2.498,-0.54833 6.33042,-4.95822 13.29267,-15.29562 31.97027,-24.51958 49.64967,-24.51958 8.32876,0 8.95037,0.25208 11.49845,4.66297 4.22689,7.31704 3.60631,8.45079 -3.96316,7.24039 -8.59272,-1.37401 -24.72332,1.47136 -36.43136,6.42636 -9.38184,3.97051 -25.90212,15.73441 -26.76871,19.06167 -0.26162,1.00449 3.29985,-1.34986 7.91438,-5.23188 13.9567,-11.74123 34.14262,-17.58832 53.32491,-15.4462 11.47261,1.28116 13.84396,2.40074 16.96443,8.00935 l 2.48074,4.45878 -21.72573,-0.0165 c -16.83384,-0.0128 -23.94333,0.64153 -31.57447,2.90591 -11.19136,3.32081 -28.58707,11.39496 -31.48978,14.61587 -2.477,2.74853 -2.5775,2.73361 -5.47717,-0.81335 z m -6.736813,-88.32139 c 0,-2.3006 -2.02864,-3.35819 -4.300947,-2.24222 -1.642543,0.80668 -1.727581,1.28263 -0.418869,2.34437 2.200176,1.78497 4.719816,1.73044 4.719816,-0.10215 z m -9.233189,-3.24417 c 0.418471,-0.86658 -0.373488,-1.57559 -1.75991,-1.57559 -5.208063,0 -7.473279,-4.64311 -7.473279,-15.318292 0,-5.54373 -0.541099,-9.89119 -1.231092,-9.89119 -0.716847,0 -1.231091,5.1998 -1.231091,12.44822 v 12.448222 l 4.616594,1.56927 c 6.222207,2.11505 6.211862,2.11458 7.078778,0.31936 z m 41.285672,-6.30237 -1.02315,-5.51457 -0.12602,7.01138 c -0.0783,4.358 0.30888,6.44493 1.02315,5.51458 0.67249,-0.87593 0.72476,-3.78429 0.12602,-7.01139 z m -60.367595,-0.68162 c 0,-1.24147 -1.077481,-2.69489 -2.394401,-3.22983 -1.7555,-0.71309 -2.519345,-2.7384 -2.862649,-7.590242 -0.438003,-6.19018 -0.482141,-6.08005 -0.683329,1.70501 -0.21089,8.160482 0.514147,9.611482 5.632606,11.272402 0.169275,0.0549 0.307773,-0.91587 0.307773,-2.15734 z m 65.446155,-13.498712 -0.71047,-5.51457 -0.71203,5.51457 c -0.39161,3.03301 -0.46322,6.88032 -0.15912,8.549572 0.54584,2.99628 0.564,2.99628 1.42249,0 0.47828,-1.669252 0.54988,-5.516562 0.15913,-8.549572 z m -25.9807,-15.80422 c 3.45232,-2.36465 3.02566,-6.25407 -0.68606,-6.25407 -3.00018,0 -3.07231,0.26797 -2.86265,10.63524 0.1547,7.64955 0.3473,8.75737 0.68606,3.94612 0.32357,-4.59549 1.21955,-7.20186 2.86265,-8.32729 z M 84.672292,64.751198 c 0,-5.74628 0.471919,-7.87796 1.744047,-7.87796 0.959226,0 2.023472,0.88627 2.364992,1.96949 0.34152,1.08322 0.664682,0.3742 0.718137,-1.5756 0.05345,-1.94979 0.651183,-3.54508 1.328279,-3.54508 1.93254,0 1.43877,8.84712 -0.615542,11.02915 -1.01565,1.07879 -1.846637,3.29265 -1.846637,4.9197 0,1.62704 -0.830987,2.95826 -1.846638,2.95826 -1.395237,0 -1.846638,-1.92573 -1.846638,-7.87796 z m 30.352558,4.99661 c -2.2432,-3.17233 -2.90422,-17.601352 -0.80635,-17.601352 0.6771,0 1.23109,2.726177 1.23109,6.058172 0,4.05718 0.81325,7.0001 2.46218,8.90996 1.3542,1.56848 2.46219,3.45091 2.46219,4.18317 0,2.35931 -3.25091,1.41732 -5.34911,-1.54995 z"
       id="path1" /></g></svg>
